<svg width="400" height="600" viewBox="0 0 400 600" fill="none" xmlns="http://www.w3.org/2000/svg">
  <rect width="400" height="600" fill="none"/>
  <rect x="80" y="30" width="240" height="520" rx="30" fill="#1a1a2e"/>
  <rect x="90" y="40" width="220" height="500" rx="25" fill="#0d0e0f"/>
  <rect x="160" y="15" width="80" height="6" rx="3" fill="#333"/>
  <rect x="100" y="55" width="200" height="140" rx="12" fill="#148DEA"/>
  <rect x="115" y="75" width="80" height="6" rx="3" fill="white" opacity="0.4"/>
  <rect x="115" y="90" width="60" height="6" rx="3" fill="white" opacity="0.4"/>
  <circle cx="140" cy="140" r="15" fill="white" opacity="0.3"/>
  <circle cx="175" cy="140" r="15" fill="white" opacity="0.3"/>
  <rect x="100" y="210" width="200" height="60" rx="10" fill="#2a2a3e"/>
  <rect x="100" y="285" width="200" height="60" rx="10" fill="#2a2a3e"/>
  <rect x="100" y="360" width="200" height="60" rx="10" fill="#2a2a3e"/>
  <rect x="115" y="230" width="60" height="6" rx="3" fill="#555"/>
  <rect x="115" y="245" width="40" height="6" rx="3" fill="#555"/>
  <rect x="115" y="305" width="60" height="6" rx="3" fill="#555"/>
  <rect x="115" y="320" width="40" height="6" rx="3" fill="#555"/>
  <rect x="115" y="380" width="60" height="6" rx="3" fill="#555"/>
  <rect x="115" y="395" width="40" height="6" rx="3" fill="#555"/>
</svg>
