<svg width="320" height="240" viewBox="0 0 320 240" fill="none" xmlns="http://www.w3.org/2000/svg">
<path d="M157 6C87.4121 6 31 62.2548 31 131.649C31 173.252 51.2762 210.133 82.5118 233H231.488C262.724 210.133 283 173.252 283 131.649C283 62.2548 226.588 6 157 6Z" fill="white"/>
<path d="M206.769 142H197.347C196.719 140.8 197.085 139.5 197.347 139H206.769C207.188 139.96 206.943 141.4 206.769 142Z" fill="black"/>
<path fill-rule="evenodd" clip-rule="evenodd" d="M196.742 138H207.424L207.685 138.6C207.986 139.289 208.024 140.071 207.99 140.69C207.955 141.326 207.836 141.911 207.729 142.279L207.519 143H196.742L196.461 142.464C195.626 140.869 196.111 139.204 196.461 138.536L196.742 138ZM198.056 140C197.997 140.288 197.973 140.641 198.045 141H205.953C205.971 140.867 205.985 140.725 205.993 140.58C206.004 140.372 206.002 140.176 205.987 140H198.056Z" fill="black"/>
<path d="M199.12 155.107L192.114 151L187.524 151.242C186.944 152.015 186.96 153.174 187.041 153.657C187.202 154.624 188.249 156.46 191.148 156.073C192.307 156.073 195.496 156.556 195.979 156.556L197.187 158.247L197.741 159.541L197.326 160.975C197.235 161.29 197.146 161.613 197.159 161.939C197.161 162.009 197.176 162.077 197.195 162.144C197.28 162.439 197.273 162.75 197.19 163.045C197.001 163.72 196.891 164.427 197.226 165.025C197.36 165.265 197.524 165.421 197.67 165.495L200.328 161.146L199.12 155.107Z" fill="white"/>
<path d="M86.934 165.745L82.5416 167.611L91.3689 194.109C92.4728 193.44 94.6005 191.244 94.2784 187.819C93.8758 183.537 92.9409 183.46 96.1582 176.726C95.2255 176.135 93.6314 174.384 93.0835 172.773C92.6251 171.426 91.9874 169.043 92.7017 166.714C92.8842 166.118 92.7182 165.52 92.0995 165.452C90.7218 165.298 88.3271 165.483 86.934 165.745Z" fill="white"/>
<path d="M200.61 68.2766L199.267 73.0745C198.531 75.7058 195.475 76.8944 193.154 75.4526L191.942 74.6994L188.839 80.5319C185.325 80.5319 182.543 77.4572 181.371 76.1394L185.325 69.5508L182.298 70.3114C178.483 67.2595 177.466 63.6986 177.466 60.901C177.466 58.1034 179.5 50.9819 188.91 50.9821C200.864 50.9821 201.034 60.0532 199.847 63.4443L201.882 67.2593L200.61 68.2766Z" fill="white"/>
<path fill-rule="evenodd" clip-rule="evenodd" d="M197.341 72.5354L198.858 67.1172L199.335 66.7351L197.669 63.6115L197.959 62.7836C198.414 61.4836 198.611 58.9567 197.529 56.8583C196.557 54.9738 194.313 52.9821 188.91 52.9821C184.782 52.982 182.512 54.5092 181.228 56.1331C179.867 57.8536 179.466 59.8751 179.466 60.901C179.466 62.9857 180.141 65.6575 182.813 68.1197L189.528 66.4321L183.861 75.877C184.305 76.3209 184.823 76.7896 185.404 77.2133C186.153 77.7586 186.93 78.1716 187.718 78.3804L191.18 71.8721L194.209 73.7537C195.399 74.4923 196.964 73.8834 197.341 72.5354ZM188.839 80.5319C185.325 80.5319 182.543 77.4572 181.371 76.1394L185.325 69.5508L182.298 70.3114C178.483 67.2595 177.466 63.6986 177.466 60.901C177.466 58.1034 179.5 50.9819 188.91 50.9821C200.864 50.9821 201.034 60.0532 199.847 63.4443L201.882 67.2593L200.61 68.2766L199.267 73.0745C198.583 75.5174 195.901 76.7168 193.663 75.7223C193.49 75.6456 193.32 75.5558 193.154 75.4526L191.942 74.6994L188.839 80.5319Z" fill="white"/>
<path fill-rule="evenodd" clip-rule="evenodd" d="M200.582 68.1312C201.115 68.2767 201.429 68.8265 201.283 69.3593L200.209 73.2937C200.209 73.2937 200.209 73.2937 200.209 73.2937C199.31 76.5854 195.495 78.0833 192.596 76.2828C192.596 76.2828 192.596 76.2828 192.596 76.2828L189.189 74.166C188.72 73.8746 188.576 73.258 188.867 72.7889C189.158 72.3198 189.775 72.1757 190.244 72.4671L193.652 74.5839L193.652 74.5839C195.414 75.6785 197.733 74.7678 198.279 72.7668L198.279 72.7668L199.354 68.8324C199.499 68.2996 200.049 67.9857 200.582 68.1312Z" fill="black"/>
<path fill-rule="evenodd" clip-rule="evenodd" d="M199.462 62.5794C199.959 62.3372 200.557 62.5433 200.799 63.0396L202.164 65.8363L202.164 65.8363C202.707 66.9492 202.345 68.2922 201.316 68.9814L201.316 68.9814L200.36 69.622C199.901 69.9294 199.28 69.8066 198.973 69.3478C198.665 68.8889 198.788 68.2678 199.247 67.9604L200.203 67.3198C200.203 67.3198 200.203 67.3198 200.203 67.3198C200.401 67.1869 200.471 66.9279 200.367 66.7133C200.367 66.7133 200.367 66.7133 200.367 66.7133L199.002 63.9166C198.76 63.4203 198.966 62.8216 199.462 62.5794Z" fill="black"/>
<path fill-rule="evenodd" clip-rule="evenodd" d="M176.998 57.5882C178.521 53.2166 182.813 49.9275 189.165 49.9275H189.175L189.184 49.9277C192.179 49.985 195.192 50.7841 197.492 52.4507C199.825 54.1411 201.387 56.7043 201.417 60.1278C201.422 60.6801 200.978 61.1317 200.426 61.1366C199.874 61.1415 199.422 60.6977 199.417 60.1455C199.393 57.4022 198.175 55.4155 196.319 54.0702C194.432 52.7028 191.85 51.9807 189.155 51.9275C183.559 51.9307 180.097 54.7718 178.887 58.2462C177.666 61.7496 178.657 66.1059 182.434 69.2927C182.856 69.6488 182.91 70.2797 182.554 70.7018C182.197 71.1239 181.567 71.1774 181.144 70.8212C176.783 67.1413 175.485 61.9328 176.998 57.5882Z" fill="black"/>
<path d="M182.86 73.5631C184.752 73.2929 186.522 70.1057 186.776 69.0884C186 69.5001 183.854 69.252 183.5 66.5001C183.354 64.752 185 63.5001 186.64 64.1784C191.763 63.2169 197.759 57.5817 201 53.5001C201.927 52.3332 200.117 51.6017 198.746 51.0179L195.233 51.2883C191.272 49.601 185.587 49.7518 182.114 52.2981L180.991 53.1219C176.252 56.597 175.171 63.2276 178.56 68.0284C178.56 68.0284 162.724 75.8005 182.86 73.5631Z" fill="black"/>
<path fill-rule="evenodd" clip-rule="evenodd" d="M195.372 59.9526C196.201 59.6629 197.107 59.6549 197.811 59.8556C198.342 60.0072 198.649 60.5606 198.498 61.0916C198.346 61.6227 197.793 61.9303 197.262 61.7787C196.962 61.6931 196.477 61.685 196.032 61.8406C195.611 61.9878 195.305 62.248 195.163 62.6472C194.978 63.1675 194.406 63.4391 193.886 63.254C193.365 63.0688 193.094 62.4969 193.279 61.9766C193.669 60.881 194.519 60.2507 195.372 59.9526Z" fill="black"/>
<path fill-rule="evenodd" clip-rule="evenodd" d="M196.955 62.8609C197.505 62.9114 197.91 63.3981 197.86 63.9481L197.74 65.2539C197.69 65.8039 197.203 66.2088 196.653 66.1583C196.103 66.1079 195.698 65.6211 195.748 65.0711L195.868 63.7653C195.919 63.2153 196.405 62.8104 196.955 62.8609Z" fill="black"/>
<path fill-rule="evenodd" clip-rule="evenodd" d="M193.547 68.86C194.061 68.6586 194.642 68.9123 194.843 69.4265C194.883 69.5274 195.069 69.8083 195.459 70.0706C195.826 70.3175 196.31 70.5025 196.876 70.5025C197.428 70.5024 197.876 70.9501 197.876 71.5024C197.876 72.0547 197.428 72.5024 196.876 72.5025C195.863 72.5025 194.997 72.17 194.343 71.7303C193.712 71.306 193.206 70.7312 192.981 70.1558C192.779 69.6416 193.033 69.0614 193.547 68.86Z" fill="black"/>
<path d="M193.221 89.3038L188.627 82.0072C187.541 80.8073 186.419 80.0182 185.325 79.5606L181.372 77.0179L179.459 80.2719C179.259 80.4347 179.071 80.6109 178.898 80.7988L175.662 84.4851L168.634 109.083L186.643 115.671L192.68 103.357L194.302 99.5731C195.923 94.979 194.122 90.6551 193.221 89.3038Z" fill="white"/>
<path d="M197.843 41.2123C207.031 44.1849 202.364 53.5678 197.5 56C194.257 59.243 187.513 61.3695 184 62L182.279 65.7895L183.02 69.2481C183.35 70.7883 182.489 72.3547 180.939 72.6302C168.054 74.919 146.497 65.5342 146.497 65.5342C146.497 65.5342 136.228 59.5888 138.119 51.7518C140.822 44.7254 148.929 50.6708 152.983 53.103C157.036 55.5352 164.333 54.4542 166.495 53.103C181.899 44.1849 192.168 49.4097 192.438 48.7791C189.195 45.2659 192.438 39.861 197.843 41.2123Z" fill="black"/>
<path fill-rule="evenodd" clip-rule="evenodd" d="M191.066 42.6168C192.397 40.6203 195.002 39.471 198.086 40.2422L198.119 40.2504L198.151 40.2609C200.619 41.0594 202.282 42.332 203.214 43.9314C204.145 45.5278 204.272 47.3194 203.921 49.0118C203.244 52.275 200.744 55.4271 198.093 56.8199C196.33 58.5308 193.744 59.8963 191.224 60.9077C188.868 61.8535 186.482 62.5246 184.697 62.885L183.326 65.9026L183.998 69.0386C184.424 71.0252 183.324 73.2221 181.114 73.6148C174.421 74.8036 165.612 72.9626 158.604 70.8998C155.073 69.8608 151.951 68.7503 149.712 67.8997C148.591 67.4742 147.691 67.1133 147.069 66.8582C146.758 66.7306 146.517 66.6295 146.352 66.5599C146.27 66.5251 146.207 66.4983 146.165 66.4799L146.116 66.4589L146.103 66.4533L146.098 66.4513C146.098 66.4512 146.098 66.4511 146.497 65.5342C145.996 66.3996 145.996 66.3995 145.995 66.3993L145.995 66.3987L145.992 66.3973L145.984 66.3927L145.958 66.3771C145.935 66.3637 145.903 66.3447 145.863 66.32C145.781 66.2705 145.665 66.1986 145.519 66.105C145.228 65.9179 144.818 65.644 144.333 65.2911C143.367 64.5871 142.092 63.5591 140.872 62.2688C138.47 59.727 136.08 55.9408 137.147 51.5171L137.163 51.4537L137.186 51.3928C137.946 49.417 139.155 48.2108 140.702 47.706C142.192 47.2197 143.823 47.4432 145.347 47.9274C147.817 48.7119 150.408 50.3273 152.327 51.5241C152.753 51.7897 153.146 52.0348 153.497 52.2455C155.275 53.3119 157.876 53.654 160.397 53.5231C161.638 53.4586 162.818 53.2812 163.808 53.0429C164.816 52.8 165.557 52.5099 165.965 52.255L165.979 52.246L165.994 52.2376C173.865 47.6809 180.467 46.7166 185.167 46.8336C187.405 46.8892 189.197 47.1896 190.466 47.4511C189.865 45.7897 190.132 44.0179 191.066 42.6168ZM146.497 65.5342L145.995 66.3993L146.046 66.4283L146.098 66.4513L146.497 65.5342ZM146.952 64.6413L146.954 64.6422C146.994 64.6593 147.053 64.6848 147.132 64.7182C147.29 64.785 147.524 64.8832 147.828 65.0078C148.436 65.257 149.32 65.6114 150.422 66.03C152.627 66.8675 155.699 67.9602 159.168 68.9812C166.159 71.0387 174.571 72.7457 180.764 71.6456C181.655 71.4873 182.277 70.5513 182.042 69.4577L181.232 65.6764L183.307 61.1085L183.824 61.0157C185.512 60.7126 188.011 60.0424 190.479 59.0517C192.965 58.0535 195.314 56.7721 196.793 55.2929L196.908 55.1782L197.053 55.1056C199.213 54.0256 201.399 51.3257 201.962 48.6059C202.238 47.2769 202.113 46.0134 201.486 44.9385C200.865 43.872 199.674 42.862 197.568 42.1744C195.264 41.6105 193.557 42.4857 192.73 43.7262C191.896 44.9775 191.876 46.6957 193.173 48.1008L193.613 48.5772L193.358 49.173C193.195 49.5534 192.877 49.714 192.688 49.7743C192.51 49.8312 192.347 49.8349 192.256 49.8335C192.067 49.8305 191.86 49.7951 191.688 49.762C191.505 49.7266 191.257 49.6712 190.978 49.6087C190.744 49.5565 190.488 49.4994 190.231 49.4451C189.025 49.1909 187.299 48.8872 185.117 48.8329C180.767 48.7247 174.537 49.606 167.01 53.9606C166.337 54.377 165.363 54.7255 164.276 54.9872C163.162 55.2556 161.86 55.4498 160.5 55.5204C157.818 55.6598 154.745 55.3263 152.468 53.9605C152.062 53.7165 151.627 53.4461 151.171 53.1623C149.249 51.9665 146.944 50.533 144.742 49.8335C143.395 49.4056 142.239 49.3082 141.322 49.6073C140.474 49.8841 139.666 50.5552 139.077 52.0499C138.29 55.4383 140.081 58.5197 142.326 60.895C143.437 62.0707 144.611 63.0189 145.511 63.6745C145.96 64.0014 146.337 64.2532 146.6 64.4219C146.731 64.5062 146.834 64.5696 146.902 64.6111C146.916 64.6196 146.928 64.6271 146.939 64.6337C146.944 64.6364 146.948 64.6389 146.952 64.6413Z" fill="black"/>
<path d="M105.932 184.452L163.224 158.508C163.847 158.197 164.449 157.782 165.022 157.302L164.575 158.238L141.064 202.288L162.143 211.476L185.384 162.832C186.898 160.454 187.096 155.356 187.006 153.104V130.673V117.431L170.521 110.405C166.413 112.351 161.783 120.764 159.981 124.728L152.414 140.132C151.333 142.51 148.271 143.465 147.28 143.915L96.7441 162.292L105.932 184.452Z" fill="#148DEA"/>
<path d="M127.822 119.864L152.144 88.2455L155.356 90.6777L180.063 79.1567C178.306 80.4744 177.267 82.3136 177.267 83.6314L158.971 93.2701L180.494 109.961L183.569 102.933L185.326 106.447L183.569 111.718L187.522 114.793L162.046 145.979L127.822 119.864Z" fill="#D8ECFC"/>
<path fill-rule="evenodd" clip-rule="evenodd" d="M202.159 141.326C202.693 141.187 203.239 141.509 203.377 142.043L222.565 216.09C222.703 216.625 222.382 217.17 221.848 217.309C221.313 217.447 220.767 217.126 220.629 216.592L201.441 142.545C201.303 142.01 201.624 141.465 202.159 141.326Z" fill="black"/>
<path fill-rule="evenodd" clip-rule="evenodd" d="M223.758 217.341C219.833 217.341 216.651 220.523 216.651 224.448C216.651 228.373 219.833 231.555 223.758 231.555C227.683 231.555 230.866 228.373 230.866 224.448C230.866 220.523 227.683 217.341 223.758 217.341ZM214.651 224.448C214.651 219.418 218.728 215.341 223.758 215.341C228.788 215.341 232.866 219.418 232.866 224.448C232.866 229.478 228.788 233.555 223.758 233.555C218.728 233.555 214.651 229.478 214.651 224.448Z" fill="black"/>
<path fill-rule="evenodd" clip-rule="evenodd" d="M89.7177 217.341C85.7924 217.341 82.6104 220.523 82.6104 224.448C82.6104 228.373 85.7924 231.555 89.7177 231.555C93.6429 231.555 96.825 228.373 96.825 224.448C96.825 220.523 93.6429 217.341 89.7177 217.341ZM80.6104 224.448C80.6104 219.418 84.6878 215.341 89.7177 215.341C94.7475 215.341 98.825 219.418 98.825 224.448C98.825 229.478 94.7475 233.555 89.7177 233.555C84.6878 233.555 80.6104 229.478 80.6104 224.448Z" fill="black"/>
<path d="M201.328 132.565L190.789 97.1633L182.411 99.3253L196.194 132.836C195.545 133.7 195.563 134.997 195.653 135.538C195.833 136.619 197.004 138.673 200.247 138.24C201.544 138.24 204.674 139.006 205.234 139.565L205.975 141.048C206.226 141.549 206.537 142.018 206.901 142.443C207.065 142.635 207.143 142.886 207.116 143.138L207.053 143.718C207.01 144.112 207.016 144.509 207.07 144.901L207.08 144.972C207.132 145.344 207.1 145.723 206.987 146.081C206.819 146.616 206.691 147.184 206.837 147.726C206.923 148.049 207.055 148.301 207.199 148.482C207.36 148.686 207.648 148.61 207.783 148.388L210.517 143.916L209.165 137.159L201.328 132.565Z" fill="white"/>
<path fill-rule="evenodd" clip-rule="evenodd" d="M191.472 95.9542L202.174 131.902L210.058 136.524L211.574 144.103L208.636 148.91C208.437 149.236 208.103 149.496 207.692 149.576C207.246 149.663 206.746 149.521 206.415 149.103C206.177 148.804 205.988 148.426 205.87 147.985C205.645 147.146 205.858 146.336 206.033 145.78C206.101 145.564 206.121 145.335 206.09 145.11L206.08 145.038C206.014 144.565 206.007 144.085 206.059 143.611L206.118 143.066C205.71 142.586 205.362 142.058 205.08 141.495L204.45 140.235C204.449 140.234 204.448 140.233 204.446 140.233C204.351 140.182 204.216 140.122 204.043 140.056C203.697 139.923 203.251 139.786 202.767 139.661C201.813 139.416 200.841 139.253 200.306 139.241C198.48 139.468 197.113 139.01 196.165 138.228C195.237 137.462 194.791 136.452 194.666 135.702C194.606 135.338 194.576 134.78 194.654 134.179C194.712 133.742 194.832 133.233 195.076 132.749L181.049 98.6439L191.472 95.9542ZM183.772 100.007L197.334 132.981L196.993 133.436C196.81 133.68 196.69 134.034 196.638 134.438C196.585 134.837 196.61 135.197 196.639 135.374C196.694 135.705 196.925 136.262 197.438 136.685C197.919 137.082 198.735 137.433 200.115 137.249L200.181 137.24H200.247C201.024 137.24 202.228 137.457 203.266 137.725C203.797 137.861 204.32 138.02 204.759 138.188C204.977 138.272 205.189 138.364 205.377 138.462C205.55 138.554 205.765 138.682 205.94 138.858L206.055 138.973L206.869 140.6C207.083 141.029 207.349 141.429 207.66 141.793C208.004 142.194 208.167 142.72 208.11 143.245L208.047 143.826C208.013 144.138 208.018 144.453 208.061 144.764L208.071 144.835C208.128 145.251 208.111 145.673 208.021 146.081L209.459 143.728L208.272 137.795L200.482 133.229L190.105 98.3725L183.772 100.007ZM206.93 147.867C206.93 147.866 206.93 147.866 206.93 147.866L206.93 147.867Z" fill="black"/>
<path fill-rule="evenodd" clip-rule="evenodd" d="M97.3662 224.989C97.3662 224.436 97.8139 223.989 98.3662 223.989H215.652C216.204 223.989 216.652 224.436 216.652 224.989C216.652 225.541 216.204 225.989 215.652 225.989H98.3662C97.8139 225.989 97.3662 225.541 97.3662 224.989Z" fill="black"/>
<path fill-rule="evenodd" clip-rule="evenodd" d="M96.63 164.111C96.8047 164.635 96.5215 165.201 95.9976 165.376L93.1702 166.318L92.9688 166.303C89.2284 166.015 85.6926 167.281 83.8974 168.191L91.8438 192.547C92.6604 191.631 93.4845 190.116 93.3062 188.084C93.2437 187.372 93.1692 186.794 93.0996 186.254C93.0661 185.993 93.0336 185.741 93.0042 185.487C92.9161 184.726 92.8634 184 92.9428 183.175C93.0883 181.666 93.6667 179.943 95.0368 177.046C94.1453 176.34 93.162 175.318 92.4257 174.046C91.5031 172.451 90.9476 170.42 91.516 168.139C91.6495 167.603 92.1922 167.277 92.7281 167.41C93.264 167.544 93.5902 168.086 93.4567 168.622C93.0414 170.288 93.4304 171.789 94.1568 173.044C94.9175 174.359 96.0248 175.357 96.8412 175.882L97.5873 176.362L97.1999 177.16C95.5744 180.508 95.0541 182.116 94.9336 183.367C94.8739 183.986 94.9092 184.552 94.9909 185.257C95.0154 185.468 95.0449 185.698 95.0768 185.946C95.1486 186.505 95.2326 187.158 95.2985 187.909C95.642 191.822 93.2048 194.328 91.8674 195.128L90.792 195.771L81.4955 167.277L82.1677 166.865C83.8146 165.854 88.1603 163.99 92.9176 164.294L95.3652 163.479C95.8891 163.304 96.4554 163.587 96.63 164.111Z" fill="black"/>
<path d="M141.874 216.341L140.916 224.27L168.846 224.448C168.567 223.187 167.174 220.466 163.827 219.667C159.644 218.669 160.756 219.277 155.418 214.062C154.558 214.755 152.796 215.116 151.095 215.116C149.669 215.116 146.888 214.933 144.835 213.494C144.325 213.137 143.649 213.017 143.223 213.47C142.64 214.09 142.055 215.074 141.874 216.341Z" fill="white"/>
<path fill-rule="evenodd" clip-rule="evenodd" d="M144.061 212.18C144.569 212.212 145.039 212.416 145.409 212.675C147.191 213.924 149.697 214.116 151.095 214.116C151.88 214.116 152.669 214.032 153.346 213.875C154.043 213.713 154.53 213.493 154.791 213.283L155.482 212.727L156.117 213.347C156.863 214.076 157.461 214.669 157.97 215.173C158.396 215.596 158.759 215.956 159.093 216.281C159.805 216.973 160.243 217.362 160.621 217.621C161.219 218.031 161.674 218.137 163.102 218.47C163.381 218.535 163.697 218.608 164.059 218.695C167.879 219.606 169.486 222.711 169.822 224.232L170.093 225.456L139.789 225.263L140.883 216.21L140.884 216.2C141.098 214.707 141.787 213.538 142.494 212.785C142.944 212.307 143.528 212.147 144.061 212.18ZM143.932 214.176C143.481 214.664 143.014 215.451 142.866 216.472L142.043 223.277L167.366 223.439C166.755 222.374 165.579 221.113 163.595 220.64C163.282 220.565 162.992 220.499 162.722 220.437C161.297 220.11 160.423 219.91 159.491 219.271C158.957 218.905 158.41 218.407 157.699 217.715C157.383 217.408 157.005 217.033 156.563 216.595C156.181 216.216 155.751 215.79 155.273 215.321C154.817 215.542 154.308 215.704 153.798 215.823C152.954 216.019 152.011 216.116 151.095 216.116C149.642 216.116 146.585 215.941 144.262 214.313C144.122 214.215 143.999 214.18 143.935 214.176C143.934 214.176 143.933 214.176 143.932 214.176Z" fill="black"/>
<path fill-rule="evenodd" clip-rule="evenodd" d="M100.563 172.841C100.769 173.354 100.519 173.936 100.006 174.141L97.8101 175.019C97.2973 175.224 96.7154 174.975 96.5103 174.462C96.3052 173.949 96.5546 173.367 97.0674 173.162L99.2636 172.284C99.7764 172.079 100.358 172.328 100.563 172.841Z" fill="black"/>
<path fill-rule="evenodd" clip-rule="evenodd" d="M147.333 205.237C147.84 205.455 148.075 206.043 147.857 206.55L145.834 211.263C145.616 211.77 145.028 212.005 144.52 211.787C144.013 211.569 143.778 210.981 143.996 210.474L146.019 205.761C146.237 205.254 146.825 205.019 147.333 205.237Z" fill="black"/>
<path fill-rule="evenodd" clip-rule="evenodd" d="M155.845 208.748C156.354 208.964 156.592 209.55 156.377 210.059L155.498 212.136C155.283 212.645 154.697 212.883 154.188 212.668C153.679 212.452 153.441 211.866 153.656 211.357L154.535 209.28C154.75 208.771 155.337 208.533 155.845 208.748Z" fill="black"/>
<path d="M211.057 185.533C211.273 185.965 211.147 186.614 211.057 186.884C209.418 190.653 206.331 190.934 204.03 190.34L205.381 194.181C206.462 197.254 205.472 201.407 204.841 203.099L199.166 219.584L201.598 221.746C202.895 223.259 202.499 224.47 202.139 224.886H150.252C145.14 223.392 143.662 221.933 142.415 220.935C141.063 219.854 142.144 216.611 145.387 218.233C152.306 221.908 159.08 220.665 161.602 219.584C165.656 206.072 172.412 203.91 180.249 200.397C186.518 197.586 188.266 191.839 188.356 189.317C182.681 191.208 176.736 187.425 174.033 184.722C171.601 181.75 175.655 177.696 178.627 179.858C183.384 183.966 187.635 182.29 189.437 181.209C190.576 177.984 193.462 176.604 195.431 176.192C195.931 176.088 196.447 176.132 196.947 176.245L203.656 177.76C204.263 177.897 204.875 178.08 205.356 178.477C206.863 179.723 207.237 181.817 207.003 182.831L211.057 185.533Z" fill="black"/>
<path fill-rule="evenodd" clip-rule="evenodd" d="M195.226 175.214C195.915 175.07 196.585 175.138 197.167 175.269L203.876 176.784C204.504 176.926 205.318 177.149 205.993 177.706C206.927 178.478 207.49 179.494 207.787 180.442C207.989 181.088 208.083 181.751 208.065 182.337L211.832 184.848L211.951 185.086C212.173 185.53 212.19 186.006 212.17 186.332C212.148 186.675 212.076 186.99 212.005 187.201L211.991 187.243L211.974 187.283C211.058 189.39 209.685 190.615 208.139 191.186C207.263 191.51 206.369 191.61 205.524 191.573L206.325 193.849C206.937 195.59 206.946 197.569 206.746 199.274C206.546 200.983 206.124 202.517 205.783 203.436L200.328 219.279L202.313 221.043L202.357 221.095C203.935 222.936 203.619 224.704 202.895 225.541L202.596 225.886H150.109L149.971 225.846C147.356 225.081 145.631 224.315 144.382 223.589C143.34 222.984 142.642 222.412 142.095 221.964C141.988 221.876 141.887 221.793 141.79 221.716C140.623 220.782 140.615 219.088 141.352 218.007C141.751 217.422 142.379 216.975 143.194 216.833C143.996 216.695 144.89 216.866 145.835 217.338L145.846 217.344L145.857 217.35C152.093 220.663 158.193 219.769 160.787 218.83C162.841 212.211 165.584 208.231 168.863 205.475C171.742 203.055 175.003 201.619 178.338 200.15C178.837 199.93 179.338 199.709 179.84 199.484C184.695 197.308 186.619 193.245 187.175 190.648C184.54 191.125 181.946 190.596 179.698 189.666C177.027 188.562 174.757 186.86 173.326 185.429L173.291 185.394L173.259 185.356C171.648 183.386 172.239 181.058 173.586 179.669C174.919 178.294 177.226 177.602 179.216 179.049L179.249 179.074L179.281 179.101C181.48 181 183.494 181.515 185.119 181.48C186.585 181.448 187.807 180.967 188.629 180.52C190.008 177.097 193.14 175.649 195.226 175.214ZM203.258 191.156C202.646 190.959 202.097 190.712 201.647 190.457C201.166 190.186 200.996 189.576 201.268 189.095C201.54 188.614 202.15 188.444 202.631 188.716C203.058 188.958 203.632 189.204 204.281 189.371C205.303 189.636 206.43 189.685 207.445 189.31C208.417 188.951 209.398 188.163 210.118 186.534C210.139 186.463 210.165 186.339 210.174 186.207C210.175 186.186 210.176 186.166 210.176 186.148L205.873 183.279L206.029 182.606C206.096 182.314 206.092 181.722 205.878 181.04C205.67 180.375 205.292 179.722 204.719 179.248C204.433 179.012 204.024 178.868 203.435 178.735L196.726 177.22C196.31 177.126 195.948 177.106 195.635 177.171C193.856 177.543 191.358 178.771 190.38 181.542L190.26 181.881L189.952 182.067C188.958 182.663 187.274 183.434 185.162 183.479C183.031 183.525 180.554 182.83 178.009 180.645C177.032 179.957 175.842 180.215 175.021 181.061C174.216 181.891 173.992 183.057 174.778 184.053C176.052 185.317 178.09 186.838 180.462 187.818C182.856 188.808 185.503 189.213 188.04 188.368L189.407 187.912L189.356 189.352C189.256 192.152 187.361 198.304 180.658 201.309C180.138 201.542 179.627 201.768 179.124 201.99C175.772 203.469 172.794 204.784 170.15 207.006C167.155 209.523 164.544 213.259 162.56 219.871L162.426 220.319L161.996 220.503C159.249 221.68 152.158 222.956 144.93 219.122C144.259 218.788 143.805 218.757 143.536 218.804C143.278 218.849 143.113 218.975 143.005 219.134C142.728 219.539 142.855 220.007 143.039 220.154C143.155 220.246 143.268 220.339 143.383 220.433C143.924 220.876 144.494 221.341 145.387 221.86C146.447 222.476 147.979 223.171 150.396 223.886H201.487C201.513 223.587 201.425 223.1 200.881 222.446L198.004 219.888L203.9 202.762L203.904 202.75C204.193 201.976 204.578 200.592 204.76 199.041C204.943 197.479 204.907 195.845 204.438 194.513L203.258 191.156Z" fill="black"/>
<path d="M200.788 193.64C202.733 192.776 203.76 191.118 204.031 190.397C205.328 190.83 206.463 190.668 207.544 190.397C206.679 193.857 203.49 195.802 202.139 196.343C199.707 197.153 199.166 194.721 200.788 193.64Z" fill="#FFA099"/>
<path fill-rule="evenodd" clip-rule="evenodd" d="M208.918 189.023L208.514 190.64C208.021 192.611 206.873 194.124 205.7 195.201C204.531 196.274 203.291 196.959 202.51 197.271L202.483 197.282L202.455 197.291C201.702 197.542 200.974 197.583 200.338 197.357C199.684 197.123 199.223 196.638 199.005 196.047C198.581 194.897 199.107 193.559 200.233 192.808L200.304 192.761L200.381 192.726C202.033 191.992 202.897 190.571 203.094 190.046L203.433 189.144L204.347 189.449C205.379 189.793 206.294 189.679 207.301 189.427L208.918 189.023ZM204.563 191.565C203.992 192.516 202.927 193.756 201.284 194.513C200.846 194.836 200.834 195.227 200.881 195.355C200.9 195.405 200.929 195.444 201.009 195.473C201.106 195.507 201.349 195.547 201.795 195.403C202.37 195.168 203.383 194.613 204.347 193.728C204.969 193.157 205.551 192.467 205.988 191.657C205.536 191.678 205.061 191.656 204.563 191.565Z" fill="black"/>
<path d="M203.473 182.877C203.313 183.606 202.828 184.119 202.391 184.023C201.954 183.926 201.729 183.258 201.889 182.529C202.049 181.8 202.534 181.287 202.971 181.383C203.408 181.479 203.633 182.148 203.473 182.877Z" fill="white"/>
<path fill-rule="evenodd" clip-rule="evenodd" d="M176.992 207.664C175.508 207.554 174.169 207.868 173.259 208.51C172.808 208.829 172.184 208.721 171.866 208.27C171.547 207.819 171.655 207.195 172.106 206.876C173.493 205.897 175.33 205.535 177.14 205.67C178.96 205.805 180.85 206.447 182.4 207.6C183.961 208.761 185.183 210.448 185.598 212.637C185.942 214.449 185.72 216.531 184.78 218.854H187.276C190.385 218.854 191.943 221.339 191.42 223.483C191.29 224.02 190.749 224.349 190.212 224.218C189.675 224.088 189.346 223.547 189.477 223.01C189.684 222.161 189.127 220.854 187.276 220.854H181.586L182.332 219.398C183.677 216.773 183.945 214.653 183.633 213.01C183.323 211.373 182.416 210.105 181.207 209.205C179.986 208.297 178.465 207.774 176.992 207.664Z" fill="white"/>
<path fill-rule="evenodd" clip-rule="evenodd" d="M194.962 206.43C195.511 206.496 195.901 206.994 195.835 207.543L193.944 223.217C193.877 223.765 193.379 224.156 192.831 224.09C192.283 224.024 191.892 223.525 191.958 222.977L193.85 207.303C193.916 206.755 194.414 206.364 194.962 206.43Z" fill="white"/>
<path fill-rule="evenodd" clip-rule="evenodd" d="M49 232.555C49 232.003 49.4477 231.555 50 231.555H53.5139C54.0662 231.555 54.5139 232.003 54.5139 232.555C54.5139 233.108 54.0662 233.555 53.5139 233.555H50C49.4477 233.555 49 233.108 49 232.555ZM55.5887 232.555C55.5887 232.003 56.0364 231.555 56.5887 231.555H70.2052C70.7575 231.555 71.2052 232.003 71.2052 232.555C71.2052 233.108 70.7575 233.555 70.2052 233.555H56.5887C56.0364 233.555 55.5887 233.108 55.5887 232.555ZM77.5508 232.555C77.5508 232.003 77.9986 231.555 78.5508 231.555H261.322C261.874 231.555 262.322 232.003 262.322 232.555C262.322 233.108 261.874 233.555 261.322 233.555H78.5508C77.9986 233.555 77.5508 233.108 77.5508 232.555ZM278.699 232.555C278.699 232.003 279.147 231.555 279.699 231.555H287.266C287.818 231.555 288.266 232.003 288.266 232.555C288.266 233.108 287.818 233.555 287.266 233.555H279.699C279.147 233.555 278.699 233.108 278.699 232.555Z" fill="black"/>
<path d="M174.726 71.6023V100.518V104.69L159.409 92.8306C155.896 85.534 143.907 79.1352 140.304 78.7748C135.169 77.9641 134.189 70.521 140.675 69.1698L143.648 68.359C147.539 67.0619 146.53 62.5038 145.269 60.2517C143.378 55.6576 149.593 51.6039 153.106 56.1982L159.322 64.3055C161.484 66.8999 162.565 67.5485 164.727 65.927C169.051 61.8734 174.726 64.846 174.726 71.6023Z" fill="#2AD1C9"/>
<path fill-rule="evenodd" clip-rule="evenodd" d="M144.345 60.6325C142.014 54.972 149.668 50.0553 153.901 55.5908L160.103 63.6809C160.63 64.3127 161.064 64.7922 161.448 65.1424C161.837 65.4969 162.127 65.6737 162.355 65.7534C162.687 65.8695 163.128 65.8668 164.085 65.158C166.51 62.9124 169.454 62.5239 171.831 63.8354C174.184 65.1336 175.726 67.9544 175.726 71.6024V106.729L158.61 93.477L158.508 93.2645C156.871 89.8642 153.181 86.5634 149.341 84.0371C147.438 82.7858 145.538 81.7497 143.902 81.0077C142.236 80.2521 140.935 79.843 140.205 79.7699L140.176 79.7671L140.148 79.7626C137.079 79.278 135.225 76.7899 135.133 74.2107C135.038 71.5607 136.782 68.9719 140.441 68.1973L143.357 67.402C144.124 67.1412 144.594 66.7449 144.89 66.3044C145.197 65.8473 145.36 65.2747 145.392 64.6152C145.457 63.269 144.964 61.7524 144.397 60.7404L144.368 60.688L144.345 60.6325ZM146.174 59.8203C146.856 61.0607 147.476 62.9194 147.39 64.7118C147.345 65.6355 147.11 66.5864 146.551 67.4191C145.984 68.2637 145.128 68.9198 143.964 69.3078L143.938 69.3165L140.909 70.1426L140.879 70.1488C138.073 70.7334 137.074 72.5347 137.131 74.1393C137.191 75.8153 138.385 77.4477 140.435 77.7831C141.505 77.8972 143.04 78.4203 144.728 79.1863C146.464 79.9735 148.455 81.0607 150.44 82.3662C154.3 84.9058 158.284 88.3699 160.204 92.1814L173.726 102.651V71.6024C173.726 68.494 172.43 66.4502 170.865 65.5865C169.337 64.7437 167.302 64.8834 165.411 66.6566L165.371 66.6941L165.327 66.727C164.151 67.6088 162.979 68.0908 161.694 67.6411C161.111 67.437 160.59 67.0666 160.101 66.6205C159.61 66.1729 159.102 65.6035 158.554 64.9458L158.541 64.9301L152.312 56.8057C149.532 53.1701 144.787 56.3129 146.174 59.8203Z" fill="#2AD1C9"/>
<path fill-rule="evenodd" clip-rule="evenodd" d="M153.347 65.9165C153.8 65.6013 154.424 65.7135 154.739 66.167C157.984 70.8373 160.751 75.5024 163.032 79.7792C163.965 81.5285 164.818 83.2134 165.588 84.8079C165.832 82.3915 166.023 79.3032 165.89 76.514C165.864 75.9624 166.29 75.4939 166.842 75.4676C167.393 75.4413 167.862 75.8673 167.888 76.4189C168.099 80.8501 167.53 85.9371 167.179 88.2193C168.375 90.8998 168.77 92.3368 169.116 93.5919C169.238 94.0355 169.354 94.4564 169.497 94.9014C169.666 95.4273 169.376 95.9904 168.85 96.159C168.324 96.3277 167.761 96.0381 167.593 95.5122C167.425 94.9899 167.298 94.5285 167.169 94.0612C166.819 92.7891 166.457 91.474 165.234 88.7691C164.173 86.423 162.897 83.7897 161.407 80.9825C158.712 79.5302 151.319 76.4061 141.589 74.7499C141.044 74.6572 140.678 74.1407 140.771 73.5962C140.863 73.0518 141.38 72.6855 141.924 72.7782C149.656 74.0943 155.976 76.3198 159.766 77.9795C157.836 74.5453 155.611 70.9267 153.096 67.3084C152.781 66.8548 152.893 66.2317 153.347 65.9165Z" fill="black"/>
<path fill-rule="evenodd" clip-rule="evenodd" d="M182.277 73.2446L183.007 73.9749C183.743 74.7108 184.962 75.5335 186.306 76.1728C187.472 76.7273 188.633 77.096 189.564 77.1884L190.555 74.8684C190.771 74.3605 191.359 74.1246 191.867 74.3415C192.375 74.5584 192.611 75.146 192.394 75.6539L191.134 78.6039C190.828 79.3213 190.821 80.1314 191.116 80.8536L193.732 87.27C193.939 87.7778 194.179 88.2764 194.435 88.8079L194.46 88.8598C194.72 89.4007 194.996 89.9759 195.233 90.5743C196.084 92.7221 196.82 96.231 195.515 99.9284L195.504 99.9594L193.87 103.773C193.652 104.281 193.064 104.516 192.557 104.298C192.049 104.081 191.814 103.493 192.031 102.985L193.64 99.2326C194.717 96.1492 194.112 93.175 193.373 91.3107C193.166 90.7882 192.921 90.2741 192.658 89.7269C192.647 89.7034 192.635 89.6798 192.624 89.6561C192.375 89.1396 192.111 88.5913 191.88 88.0252L189.264 81.6089C188.94 80.8153 188.832 79.9589 188.939 79.1238C187.793 78.9454 186.565 78.5107 185.447 77.9789C184.341 77.4528 183.266 76.7956 182.4 76.1048C182.118 76.4536 181.799 76.8629 181.474 77.2851C181.333 77.469 181.19 77.6553 181.05 77.838C180.812 78.1492 180.582 78.4498 180.379 78.7097C182.418 77.7412 185.077 77.7908 187.654 79.5882C188.107 79.9042 188.218 80.5275 187.902 80.9805C187.586 81.4334 186.963 81.5445 186.51 81.2285C182.518 78.4442 178.83 81.2159 178.817 84.1757L179.315 98.8788L189.545 96.4325L187.934 90.677C187.785 90.1451 188.095 89.5933 188.627 89.4444C189.159 89.2955 189.711 89.6059 189.86 90.1377L192.032 97.8944L177.399 101.393L176.817 84.2086V84.1916C176.817 82.3769 177.659 80.7258 178.997 79.5989C178.832 79.5691 178.673 79.4976 178.535 79.3829C178.111 79.0293 178.054 78.3987 178.407 77.9745C178.641 77.6947 179.009 77.214 179.435 76.6577C179.581 76.4674 179.733 76.2682 179.89 76.0651C180.479 75.2998 181.127 74.4718 181.571 73.9981L182.277 73.2446Z" fill="black"/>
<path fill-rule="evenodd" clip-rule="evenodd" d="M180.448 130.106C180.942 130.354 181.141 130.955 180.894 131.448L177.036 139.14L171.529 149.28C170.782 150.804 168.972 153.766 166.652 155.759C166.233 156.118 165.601 156.07 165.241 155.651C164.882 155.233 164.93 154.601 165.349 154.241C167.394 152.484 169.065 149.769 169.741 148.383L169.75 148.363L175.263 138.214L179.106 130.552C179.354 130.058 179.955 129.858 180.448 130.106Z" fill="black"/>
<path fill-rule="evenodd" clip-rule="evenodd" d="M237.202 126.786C234.932 128.005 233.04 129.965 231.927 132.51C230.991 134.651 230.734 136.914 231.061 139.063C231.374 141.127 232.226 143.086 233.531 144.725L233.549 144.747C233.894 145.178 233.825 145.808 233.394 146.153C233.354 146.184 233.313 146.212 233.271 146.237L230.297 149.152C232.253 150.262 234.576 149.946 236.401 149.244C236.833 149.077 237.245 148.848 237.648 148.569L237.682 148.545C238.247 148.149 238.78 147.664 239.319 147.132L251.398 135.206C249.39 134.097 247.013 134.477 245.187 135.227C244.4 135.549 243.688 136.083 242.971 136.741L241.937 137.69L237.202 126.786ZM231.426 145.245C230.206 143.49 229.404 141.474 229.083 139.363C228.702 136.852 229.003 134.206 230.095 131.709C231.477 128.548 233.893 126.156 236.772 124.76C237.58 124.369 238.503 124.762 238.839 125.535L242.681 134.381C243.208 133.991 243.786 133.639 244.427 133.376C246.705 132.442 250.28 131.788 253.247 134.028C253.935 134.548 253.932 135.515 253.374 136.066L250.055 139.343L254.593 141.327C255.366 141.665 255.755 142.591 255.362 143.396C252.283 149.711 244.982 152.713 238.389 150.474C237.994 150.719 237.572 150.936 237.119 151.11C234.833 151.99 231.33 152.543 228.441 150.314C227.762 149.79 227.771 148.828 228.328 148.282L231.426 145.245ZM240.327 148.94C245.447 150.056 250.799 147.665 253.338 142.961L248.523 140.856L240.724 148.555C240.595 148.683 240.462 148.812 240.327 148.94Z" fill="black"/>
<path fill-rule="evenodd" clip-rule="evenodd" d="M62.6388 99.4891C62.42 102.054 63.0244 104.714 64.5424 107.048C65.5738 108.634 66.9131 109.894 68.4285 110.803L70.5926 100.901L62.6388 99.4891ZM71.0786 98.9565L62.8313 97.492C61.8218 97.3128 60.7787 97.9896 60.6663 99.1017C60.3571 102.163 61.0542 105.353 62.8659 108.139C64.197 110.185 65.9727 111.771 67.9815 112.849L66.9287 117.666C66.738 118.538 67.3272 119.509 68.3535 119.557C71.8466 119.723 74.3722 117.426 75.7645 115.494C76.0211 115.137 76.237 114.766 76.4213 114.386C78.3891 114.122 80.3286 113.428 82.0992 112.277C88.258 108.271 90.1568 100.181 86.606 93.8313C86.0644 92.8627 84.8473 92.6486 83.9903 93.206L80.8453 95.2515L81.0586 94.259C81.2469 93.3824 80.6483 92.4099 79.6162 92.3721C76.0543 92.2416 73.5243 94.6587 72.1678 96.6315C71.6634 97.365 71.3265 98.1642 71.0786 98.9565ZM78.9871 94.3794C76.7077 94.5346 74.9303 96.1438 73.8157 97.7647C73.3183 98.4881 73.0121 99.3573 72.7699 100.339C72.7237 100.527 72.6801 100.717 72.638 100.91L68.9996 117.557C71.2353 117.431 73.0034 115.904 74.1419 114.324C74.4111 113.951 74.6297 113.535 74.8133 113.081L75.0423 112.516L75.6501 112.461C77.5032 112.293 79.3412 111.685 81.0087 110.6C86.2176 107.212 87.8741 100.391 84.9488 94.9684L77.8714 99.5716L78.9871 94.3794Z" fill="black"/>
<path fill-rule="evenodd" clip-rule="evenodd" d="M147.461 16.3661C149.588 17.8165 151.269 19.9647 152.12 22.6157C152.698 24.4168 152.829 26.2513 152.577 28.0003L143.533 23.425L147.461 16.3661ZM141.718 22.5735L145.791 15.2541C146.289 14.3582 147.473 13.9769 148.406 14.592C150.975 16.2854 153.008 18.8407 154.024 22.0044C154.77 24.329 154.878 26.7074 154.445 28.9453L158.845 31.1713C159.642 31.5744 160.022 32.6441 159.412 33.4706C157.334 36.2835 153.958 36.7909 151.581 36.6503C151.143 36.6244 150.718 36.5569 150.307 36.4602C148.86 37.8192 147.097 38.8849 145.086 39.5305C138.091 41.7761 130.619 38.1393 127.938 31.3762C127.529 30.3446 128.132 29.2656 129.105 28.9532L132.677 27.8065L131.773 27.345C130.975 26.9375 130.599 25.8592 131.221 25.0351C133.369 22.1909 136.841 21.7557 139.227 21.9498C140.115 22.0219 140.947 22.2655 141.718 22.5735ZM133.175 25.8149C134.734 24.1456 137.105 23.7838 139.065 23.9432C139.94 24.0143 140.808 24.3258 141.722 24.7583C141.897 24.8409 142.072 24.9271 142.247 25.0161L157.453 32.7084C155.944 34.3623 153.643 34.7687 151.699 34.6538C151.239 34.6266 150.779 34.5336 150.311 34.3895L149.728 34.2097L149.301 34.6463C148.001 35.9771 146.369 37.0182 144.475 37.6262C138.558 39.5254 132.223 36.5017 129.866 30.8094L137.905 28.2289L133.175 25.8149Z" fill="black"/>
</svg>
