<svg width="120" height="90" viewBox="0 0 120 90" fill="none" xmlns="http://www.w3.org/2000/svg">
<path fill-rule="evenodd" clip-rule="evenodd" d="M97.5764 83.8803C98.4743 83.8803 99.3247 83.4677 99.8469 82.7448C105.605 74.7736 109 64.9671 109 54.364C109 27.6533 87.4536 6 60.875 6C34.2963 6 12.75 27.6533 12.75 54.364C12.75 64.9671 16.1453 74.7736 21.9029 82.7448C22.4252 83.4677 23.2758 83.8803 24.1736 83.8803H97.5764Z" fill="#D8ECFC"/>
<path d="M76.6104 14.2504C76.6104 13.9129 76.884 13.6393 77.2215 13.6393H80.5826C80.9201 13.6393 81.1937 13.9129 81.1937 14.2504V21.8893C81.1937 22.2268 80.9201 22.5004 80.5826 22.5004H77.2215C76.884 22.5004 76.6104 22.2268 76.6104 21.8893V14.2504Z" fill="black"/>
<path d="M76 13.3329C76 12.9954 76.2736 12.7218 76.6111 12.7218H81.1944C81.532 12.7218 81.8056 12.9954 81.8056 13.3329V14.5552C81.8056 14.8927 81.532 15.1663 81.1944 15.1663H76.6111C76.2736 15.1663 76 14.8927 76 14.5552V13.3329Z" fill="black"/>
<path d="M19.7178 32.0907V20.7324C19.7178 20.6564 19.823 20.637 19.8502 20.7079L21.7541 25.687C22.0943 26.5767 22.0638 27.5656 21.6693 28.4326L19.9793 32.1474C19.9184 32.2814 19.7178 32.2379 19.7178 32.0907Z" fill="#148DEA"/>
<path fill-rule="evenodd" clip-rule="evenodd" d="M20.2178 23.0692V30.4159L21.2142 28.2256C21.5533 27.4803 21.5795 26.6303 21.2871 25.8656L20.2178 23.0692ZM19.2178 20.7324C19.2178 20.1016 20.0919 19.9402 20.3172 20.5294L22.2211 25.5084C22.6091 26.5231 22.5743 27.6509 22.1244 28.6397L20.4344 32.3545C20.1508 32.9778 19.2178 32.7756 19.2178 32.0907V20.7324Z" fill="#148DEA"/>
<path d="M14.9386 38.7257L10.3726 39.3574C10.297 39.3679 10.2629 39.2662 10.3298 39.2299L18.3756 34.8581L18.8048 35.3558L17.2856 37.3558C16.7174 38.1038 15.8735 38.5963 14.9386 38.7257Z" fill="#148DEA"/>
<path fill-rule="evenodd" clip-rule="evenodd" d="M10.0879 38.7922C9.53251 39.094 9.81578 39.9381 10.4433 39.8512L15.0094 39.2195C16.0756 39.072 17.038 38.5102 17.686 37.6572L19.4481 35.3374L18.4903 34.2266L10.0879 38.7922ZM12.6486 38.5389L17.9422 35.6625L16.8849 37.0544C16.3966 37.6973 15.6712 38.1207 14.8676 38.2319L12.6486 38.5389Z" fill="#148DEA"/>
<path d="M18.6943 34.3167C18.6943 34.973 19.2227 35.5051 19.8745 35.5051H22.7856C23.4374 35.5051 23.9658 34.973 23.9658 34.3167C23.9658 33.6603 23.4374 33.1283 22.7856 33.1283H19.8745C19.2227 33.1283 18.6943 33.6603 18.6943 34.3167Z" fill="black"/>
<path fill-rule="evenodd" clip-rule="evenodd" d="M19.8745 33.6283C19.5021 33.6283 19.1943 33.9332 19.1943 34.3167C19.1943 34.7002 19.5021 35.0051 19.8745 35.0051H22.7856C23.158 35.0051 23.4658 34.7002 23.4658 34.3167C23.4658 33.9332 23.158 33.6283 22.7856 33.6283H19.8745ZM18.1943 34.3167C18.1943 33.3875 18.9433 32.6283 19.8745 32.6283H22.7856C23.7168 32.6283 24.4658 33.3875 24.4658 34.3167C24.4658 35.2459 23.7168 36.0051 22.7856 36.0051H19.8745C18.9433 36.0051 18.1943 35.2459 18.1943 34.3167Z" fill="black"/>
<path d="M21.0307 34.3718C21.0307 35.0912 20.4428 35.6744 19.7175 35.6744C18.9922 35.6744 18.4043 35.0912 18.4043 34.3718C18.4043 33.6524 18.9922 33.0691 19.7175 33.0691C20.4428 33.0691 21.0307 33.6524 21.0307 34.3718Z" fill="white"/>
<path fill-rule="evenodd" clip-rule="evenodd" d="M19.7175 33.5691C19.2646 33.5691 18.9043 33.9323 18.9043 34.3718C18.9043 34.8113 19.2646 35.1744 19.7175 35.1744C20.1705 35.1744 20.5307 34.8113 20.5307 34.3718C20.5307 33.9323 20.1705 33.5691 19.7175 33.5691ZM21.3417 33.5691C21.4626 33.8105 21.5307 34.083 21.5307 34.3718C21.5307 34.6606 21.4626 34.933 21.3417 35.1744H22.9568C23.4097 35.1744 23.77 34.8113 23.77 34.3718C23.77 33.9323 23.4097 33.5691 22.9568 33.5691H21.3417ZM19.7175 32.5691H22.9568C23.9544 32.5691 24.77 33.3724 24.77 34.3718C24.77 35.3712 23.9544 36.1744 22.9568 36.1744H19.7175C18.7199 36.1744 17.9043 35.3712 17.9043 34.3718C17.9043 33.3724 18.7199 32.5691 19.7175 32.5691Z" fill="black"/>
<path opacity="0.8" fill-rule="evenodd" clip-rule="evenodd" d="M21 35.4438C21.2761 35.4438 21.5 35.6676 21.5 35.9438L21.5 66.1938C21.5 66.4699 21.2761 66.6938 21 66.6938C20.7239 66.6938 20.5 66.4699 20.5 66.1938L20.5 35.9438C20.5 35.6676 20.7239 35.4438 21 35.4438Z" fill="black"/>
<path d="M29.6711 41.0872L21.9353 35.1692C21.8749 35.123 21.9243 35.0279 21.9974 35.0499L26.22 36.3199C27.126 36.5924 27.8852 37.211 28.3308 38.0397L29.8765 40.9147C29.9461 41.0442 29.7883 41.1768 29.6711 41.0872Z" fill="#148DEA"/>
<path fill-rule="evenodd" clip-rule="evenodd" d="M24.1162 36.2078L28.6358 39.6653L27.8883 38.2749C27.5053 37.5626 26.8527 37.0309 26.0739 36.7966L24.1162 36.2078ZM21.6288 35.564C21.1269 35.18 21.5375 34.3907 22.1442 34.5732L26.3668 35.8432C27.4001 36.154 28.2659 36.8594 28.7741 37.8046L30.3197 40.6795C30.6437 41.2821 29.9096 41.8988 29.3646 41.4819L21.6288 35.564Z" fill="#148DEA"/>
<path d="M32.916 41.0503C32.916 40.544 33.3264 40.1336 33.8327 40.1336H86.7733C87.2795 40.1336 87.6899 40.544 87.6899 41.0503V79.0282C87.6899 79.5345 87.2795 79.9449 86.7733 79.9449H33.8327C33.3264 79.9449 32.916 79.5345 32.916 79.0282V41.0503Z" fill="#148DEA"/>
<path d="M30.2527 21.1312C30.3248 20.6875 30.708 20.3615 31.1575 20.3615H89.5021C89.9537 20.3615 90.3381 20.6905 90.4077 21.1368L93.5566 41.3034C93.6434 41.8593 93.2136 42.3615 92.6509 42.3615H27.8827C27.3178 42.3615 26.8873 41.8555 26.9779 41.2979L30.2527 21.1312Z" fill="white"/>
<path fill-rule="evenodd" clip-rule="evenodd" d="M31.1577 20.8615C30.9533 20.8615 30.7791 21.0097 30.7464 21.2114L27.4715 41.378C27.4304 41.6315 27.626 41.8615 27.8828 41.8615H63.1664C63.4425 41.8615 63.6664 42.0854 63.6664 42.3615C63.6664 42.6376 63.4425 42.8615 63.1664 42.8615H27.8828C27.0098 42.8615 26.3445 42.0795 26.4845 41.2178L29.7593 21.0511C29.8707 20.3653 30.4629 19.8615 31.1577 19.8615H35.6193C35.8955 19.8615 36.1193 20.0854 36.1193 20.3615C36.1193 20.6376 35.8955 20.8615 35.6193 20.8615H31.1577ZM39.1386 20.3615C39.1386 20.0854 39.3625 19.8615 39.6386 19.8615H89.5022C90.2002 19.8615 90.7942 20.37 90.9019 21.0596L94.0508 41.2263C94.1849 42.0854 93.5206 42.8615 92.6511 42.8615H80.7359C80.4597 42.8615 80.2359 42.6376 80.2359 42.3615C80.2359 42.0854 80.4597 41.8615 80.7359 41.8615H92.6511C92.9068 41.8615 93.1022 41.6332 93.0627 41.3806L89.9138 21.2139C89.8822 21.011 89.7075 20.8615 89.5022 20.8615H39.6386C39.3625 20.8615 39.1386 20.6376 39.1386 20.3615Z" fill="black"/>
<path d="M38.1113 48.7777C38.1113 48.2715 38.5217 47.8611 39.028 47.8611H51.7595C52.2657 47.8611 52.6761 48.2715 52.6761 48.7777V79.0641C52.6761 79.5704 52.2657 79.9808 51.7595 79.9808H39.028C38.5217 79.9808 38.1113 79.5704 38.1113 79.0641V48.7777Z" fill="white"/>
<path d="M54.4961 48.7779C54.4961 48.2717 54.9065 47.8613 55.4128 47.8613H80.8885C81.3947 47.8613 81.8051 48.2717 81.8051 48.7779V79.0644C81.8051 79.5706 81.3947 79.981 80.8885 79.981H55.4128C54.9065 79.981 54.4961 79.5706 54.4961 79.0644V48.7779Z" fill="white"/>
<path fill-rule="evenodd" clip-rule="evenodd" d="M37.6113 48.7777C37.6113 47.9953 38.2456 47.3611 39.028 47.3611H51.7595C52.5419 47.3611 53.1761 47.9953 53.1761 48.7777V79.0641C53.1761 79.8466 52.5419 80.4808 51.7595 80.4808H39.028C38.2456 80.4808 37.6113 79.8465 37.6113 79.0641V48.7777ZM39.028 48.3611C38.7979 48.3611 38.6113 48.5476 38.6113 48.7777V79.0641C38.6113 79.2943 38.7979 79.4808 39.028 79.4808H51.7595C51.9896 79.4808 52.1761 79.2943 52.1761 79.0641V48.7777C52.1761 48.5476 51.9896 48.3611 51.7595 48.3611H39.028Z" fill="black"/>
<path fill-rule="evenodd" clip-rule="evenodd" d="M57.7783 53.056C57.7783 52.2736 58.4126 51.6393 59.195 51.6393H77.2228C78.0052 51.6393 78.6394 52.2736 78.6394 53.056V55.3477C78.6394 55.6238 78.4156 55.8477 78.1394 55.8477C77.8633 55.8477 77.6394 55.6238 77.6394 55.3477V53.056C77.6394 52.8259 77.4529 52.6393 77.2228 52.6393H59.195C58.9649 52.6393 58.7783 52.8259 58.7783 53.056V67.1116C58.7783 67.3417 58.9649 67.5282 59.195 67.5282H77.2228C77.4529 67.5282 77.6394 67.3417 77.6394 67.1116V57.9449C77.6394 57.6687 77.8633 57.4449 78.1394 57.4449C78.4156 57.4449 78.6394 57.6687 78.6394 57.9449V67.1116C78.6394 67.894 78.0052 68.5282 77.2228 68.5282H59.195C58.4126 68.5282 57.7783 67.894 57.7783 67.1116V53.056Z" fill="black"/>
<path d="M41.5063 52.7501C42.5682 52.7501 43.4289 53.6039 43.4289 54.6572V61.4161C43.4289 61.8183 43.9 62.0398 44.2139 61.7852L46.4845 60.004C46.7959 59.7885 47.1403 59.6294 47.5488 59.6294C48.6106 59.6294 49.4714 60.4492 49.4714 61.5024C49.4714 62.1202 49.1752 62.7035 48.7161 63.052L44.1294 66.9477C43.688 67.3272 43.852 68.0069 44.3835 67.9789C44.5866 67.9681 44.7569 67.8342 44.9107 67.7023L47.3085 65.7253C47.6357 65.4694 47.958 65.2826 48.4071 65.2826C49.4689 65.2826 50.2954 66.0002 50.2954 67.0535C50.2954 67.8008 49.8834 68.4839 49.2997 68.9606L44.8022 72.5706C43.3946 73.4901 44.4932 74.9204 45.4889 74.2733L47.7204 72.8459C48.0109 72.6712 48.3516 72.5706 48.7161 72.5706C49.7779 72.5706 50.6387 73.4244 50.6387 74.4777C50.6387 75.1108 50.3277 75.6718 49.849 76.0187L40.6959 81.6288C40.0198 82.0432 39.163 82.0197 38.5106 81.5689L33.1636 77.8736C32.7241 77.5241 32.4427 76.9871 32.4427 76.3848C32.4427 75.3315 33.3034 74.4777 34.3653 74.4777C34.7509 74.4777 35.11 74.5903 35.411 74.7842L37.6955 76.3848C38.4832 76.8536 39.0324 76.2884 38.8971 75.6696C38.826 75.3445 38.4397 75.054 38.0731 74.7842L33.301 71.0721C32.683 70.5953 32.3053 70.0551 32.3053 69.3353C32.3053 68.282 33.1661 67.4281 34.2279 67.4281C34.6516 67.4281 35.0432 67.564 35.3609 67.7943L37.7262 69.8178C37.8788 69.9478 38.0473 70.0796 38.2481 70.0913C38.7824 70.1224 38.948 69.4406 38.5056 69.0603L34.2279 65.3132C33.8081 64.9633 33.5413 64.4387 33.5413 63.8523C33.5413 62.799 34.4021 61.9452 35.4639 61.9452C35.8724 61.9452 36.2511 62.0715 36.5625 62.287L39.0105 64.3717C39.163 64.5015 39.3313 64.6331 39.5319 64.6449C40.0664 64.6763 40.2322 63.9943 39.7897 63.6139L35.6494 59.9712C35.2019 59.622 34.9146 59.08 34.9146 58.4715C34.9146 57.4182 35.7754 56.5643 36.8372 56.5643C37.2608 56.5643 37.6524 56.7002 37.9701 56.9305L38.786 57.6408C39.0967 57.9112 39.5837 57.6924 39.5837 57.2824V54.6572C39.5837 53.6039 40.4445 52.7501 41.5063 52.7501Z" fill="#2AD1C9"/>
<path fill-rule="evenodd" clip-rule="evenodd" d="M41.5063 53.2501C42.2958 53.2501 42.9289 53.8839 42.9289 54.6572V61.4161C42.9289 62.2454 43.8906 62.6865 44.5251 62.1765L46.7808 60.407C47.0416 60.2286 47.2836 60.1294 47.5488 60.1294C48.3502 60.1294 48.9714 60.7407 48.9714 61.5024C48.9714 61.9659 48.7468 62.401 48.4138 62.6537L48.4029 62.662L43.8057 66.5666L43.8035 66.5685C43.4445 66.8771 43.3076 67.3325 43.4059 67.7348C43.5091 68.1572 43.8794 68.5062 44.4099 68.4782C44.7983 68.4577 45.0863 68.2105 45.2284 68.0885L45.2326 68.085L47.6214 66.1153C47.9113 65.8893 48.1238 65.7826 48.4071 65.7826C49.2346 65.7826 49.7954 66.3164 49.7954 67.0535C49.7954 67.612 49.4846 68.1634 48.985 68.5721C48.9844 68.5726 48.9839 68.573 48.9834 68.5734L44.5074 72.1661C44.0932 72.442 43.8179 72.7851 43.6985 73.166C43.5766 73.5549 43.6312 73.9433 43.8099 74.257C44.1674 74.8843 45.008 75.1808 45.7596 74.6937C45.7601 74.6934 45.7607 74.693 45.7613 74.6926L47.9837 73.271C48.1971 73.1439 48.4471 73.0706 48.7161 73.0706C49.5056 73.0706 50.1387 73.7043 50.1387 74.4777C50.1387 74.9364 49.9171 75.3451 49.57 75.6032L40.4346 81.2025C39.9273 81.5135 39.2844 81.4958 38.7949 81.1576L33.4627 77.4726C33.1437 77.2132 32.9427 76.8219 32.9427 76.3848C32.9427 75.6115 33.5758 74.9777 34.3653 74.9777C34.649 74.9777 34.9117 75.0593 35.1326 75.1997L37.4238 76.805L37.4398 76.8145C37.957 77.1223 38.5155 77.1473 38.9376 76.8387C39.3391 76.545 39.4891 76.0364 39.3856 75.5629C39.3183 75.2549 39.1177 75.016 38.9444 74.8476C38.7664 74.6746 38.5528 74.5164 38.3749 74.3854L33.608 70.6774L33.6064 70.6762C33.0563 70.2518 32.8053 69.842 32.8053 69.3353C32.8053 68.5619 33.4384 67.9281 34.2279 67.9281C34.5362 67.9281 34.8201 68.0246 35.0523 68.1883L37.4012 70.1977L37.4095 70.2048C37.5507 70.3252 37.8355 70.5681 38.219 70.5904C38.7508 70.6214 39.1239 70.2735 39.2285 69.85C39.3279 69.4478 39.1918 68.992 38.8335 68.6828C38.8329 68.6822 38.8322 68.6817 38.8316 68.6811L34.5481 64.9289C34.2368 64.6695 34.0413 64.2833 34.0413 63.8523C34.0413 63.0789 34.6744 62.4452 35.4639 62.4452C35.7594 62.4452 36.0323 62.5337 36.2589 62.6851L38.6938 64.7587C38.835 64.879 39.1195 65.1215 39.5026 65.144C40.0345 65.1753 40.4078 64.8275 40.5126 64.4038C40.612 64.0017 40.4761 63.5461 40.1181 63.2368L35.9686 59.5861L35.957 59.577C35.625 59.3179 35.4146 58.9186 35.4146 58.4715C35.4146 57.6981 36.0477 57.0643 36.8372 57.0643C37.1448 57.0643 37.428 57.1603 37.6599 57.3234L38.4577 58.0179C39.0858 58.5647 40.0837 58.1295 40.0837 57.2824V54.6572C40.0837 53.8839 40.7168 53.2501 41.5063 53.2501ZM43.9289 54.6572C43.9289 53.324 42.8405 52.2501 41.5063 52.2501C40.1722 52.2501 39.0837 53.324 39.0837 54.6572V57.237L38.2816 56.5387L38.2635 56.5256C37.8631 56.2354 37.3694 56.0643 36.8372 56.0643C35.503 56.0643 34.4146 57.1382 34.4146 58.4715C34.4146 59.2358 34.7736 59.9161 35.3295 60.3558L39.4638 63.9931C39.5282 64.0485 39.5434 64.1058 39.544 64.1404C39.5352 64.1369 39.5228 64.131 39.5063 64.1213C39.4608 64.0947 39.4091 64.0544 39.3347 63.991L36.8676 61.8901L36.847 61.8758C36.4545 61.6042 35.977 61.4452 35.4639 61.4452C34.1297 61.4452 33.0413 62.5191 33.0413 63.8523C33.0413 64.5918 33.3774 65.2528 33.9028 65.6931L38.1797 69.4394C38.2441 69.4948 38.2593 69.5522 38.2599 69.5868C38.2511 69.5832 38.2387 69.5774 38.2222 69.5677C38.1768 69.5411 38.1252 69.5009 38.0511 69.4377C38.0513 69.4379 38.0509 69.4375 38.0511 69.4377L35.6706 67.4012L35.6543 67.3894C35.2538 67.0992 34.7601 66.9281 34.2279 66.9281C32.8938 66.9281 31.8053 68.002 31.8053 69.3353C31.8053 70.2678 32.3092 70.9382 32.9945 71.4672C32.9948 71.4674 32.9952 71.4677 32.9955 71.468L37.7767 75.187C37.9643 75.3251 38.1247 75.4455 38.2475 75.5648C38.3767 75.6903 38.4049 75.7593 38.4086 75.7764C38.4404 75.9217 38.3835 76.005 38.3472 76.0315C38.3295 76.0445 38.2994 76.0591 38.2448 76.058C38.1894 76.0568 38.096 76.0385 37.9658 75.9637L35.6899 74.3691L35.6817 74.3638C35.3023 74.1194 34.8495 73.9777 34.3653 73.9777C33.0311 73.9777 31.9427 75.0516 31.9427 76.3848C31.9427 77.1468 32.2995 77.8253 32.8524 78.265L32.8656 78.2754L38.2264 81.9802C39.0415 82.5436 40.1123 82.573 40.9572 82.0551L50.1268 76.4349L50.1424 76.4235C50.7445 75.9873 51.1387 75.2788 51.1387 74.4777C51.1387 73.1445 50.0502 72.0706 48.7161 72.0706C48.2585 72.0706 47.8289 72.1971 47.4627 72.4174L47.4509 72.4245L45.2194 73.8521L45.2164 73.8541C44.9728 74.0124 44.7673 73.9173 44.6787 73.7619C44.6343 73.6839 44.6159 73.5827 44.6528 73.4651C44.6901 73.3459 44.7979 73.1706 45.0757 72.9892L45.0961 72.9758L49.6127 69.3506L49.616 69.3479C50.2828 68.8032 50.7954 67.9891 50.7954 67.0535C50.7954 65.684 49.7032 64.7826 48.4071 64.7826C47.7938 64.7826 47.3625 65.0483 47.0004 65.3315L46.9903 65.3394L44.5852 67.3227C44.5101 67.3871 44.4579 67.4281 44.412 67.4551C44.396 67.4645 44.3839 67.4703 44.3751 67.4739C44.3758 67.4394 44.391 67.3826 44.4545 67.3276C44.4548 67.3273 44.4551 67.3271 44.4554 67.3268L49.03 63.4414C49.6086 62.9963 49.9714 62.2694 49.9714 61.5024C49.9714 60.1576 48.871 59.1294 47.5488 59.1294C47.001 59.1294 46.5576 59.3454 46.2 59.5928L46.1877 59.6013L43.9289 61.3732V54.6572Z" fill="#2AD1C9"/>
<path fill-rule="evenodd" clip-rule="evenodd" d="M41.5062 55.5534C41.2301 55.5534 41.0062 55.7773 41.0062 56.0534V61.1469L37.3387 57.9255C37.1312 57.7432 36.8153 57.7637 36.6331 57.9711C36.4508 58.1786 36.4713 58.4945 36.6788 58.6768L41.0062 62.4779V67.4442L36.1975 63.4014C35.9862 63.2237 35.6708 63.251 35.4931 63.4623C35.3154 63.6737 35.3426 63.9891 35.554 64.1668L41.0062 68.7507V73.9874L34.9506 69.1819C34.7343 69.0103 34.4198 69.0465 34.2482 69.2628C34.0765 69.4791 34.1127 69.7936 34.329 69.9652L41.0062 75.264V77.6223C41.0062 78.4411 41.8917 78.9535 42.6016 78.5457L48.6904 75.0474C48.9298 74.9098 49.0124 74.6042 48.8749 74.3647C48.7373 74.1253 48.4317 74.0427 48.1922 74.1803L42.1035 77.6786C42.0602 77.7034 42.0062 77.6722 42.0062 77.6223V72.7871L47.6419 68.5779C47.8631 68.4126 47.9085 68.0993 47.7433 67.8781C47.5781 67.6568 47.2647 67.6114 47.0435 67.7767L42.0062 71.5389V66.4143L47.3041 62.3415C47.523 62.1732 47.5641 61.8593 47.3958 61.6403C47.2275 61.4214 46.9136 61.3804 46.6946 61.5487L42.0062 65.1529V56.0534C42.0062 55.7773 41.7824 55.5534 41.5062 55.5534ZM34.2156 76.3244C34.0694 76.5587 34.1409 76.8671 34.3752 77.0133L39.834 80.4189C40.0683 80.565 40.3767 80.4936 40.5228 80.2593C40.669 80.025 40.5976 79.7166 40.3633 79.5704L34.9045 76.1649C34.6702 76.0187 34.3618 76.0901 34.2156 76.3244Z" fill="black"/>
<path d="M18.8494 64.0833L20.3919 68.9975L28.8922 69.5859L31.9277 68.1277C33.809 67.2239 33.482 64.4726 31.4393 64.0186L30.0968 63.7202L30.675 62.4928C31.4048 60.9436 30.8591 59.0955 29.4006 58.1769C27.1906 56.785 24.2903 58.2539 24.1382 60.842L24.0788 61.8513L23.2895 61.1843C22.363 60.4013 21.031 60.3077 20.0054 60.9535C18.9514 61.6173 18.4779 62.8994 18.8494 64.0833Z" fill="#2AD1C9"/>
<path fill-rule="evenodd" clip-rule="evenodd" d="M27.7558 60.5016C27.4955 60.4088 27.2096 60.5445 27.1173 60.8045L24.9857 66.8089L22.5232 63.3832C22.3618 63.1588 22.0493 63.1072 21.8251 63.2681C21.6009 63.4289 21.5499 63.7412 21.7112 63.9656L24.5789 67.9549L24.409 68.4333C24.3167 68.6934 24.4529 68.9793 24.7132 69.0721C24.9736 69.1649 25.2594 69.0293 25.3517 68.7692L26.1612 66.489L30.297 66.2104C30.5726 66.1918 30.7805 65.9535 30.7614 65.678C30.7423 65.4026 30.5035 65.1943 30.2279 65.2129L26.5257 65.4623L28.06 61.1404C28.1524 60.8803 28.0162 60.5944 27.7558 60.5016Z" fill="black"/>
<path d="M98.3048 55.6037L97.4348 59.1353L91.468 59.9201L89.2635 59.0242C87.8971 58.4689 88.006 56.515 89.426 56.106L90.3593 55.8372L89.8974 54.997C89.3143 53.9366 89.6173 52.61 90.605 51.8988C92.1015 50.8214 94.2111 51.7307 94.4329 53.5487L94.5193 54.2577L95.0463 53.7531C95.6649 53.1607 96.5998 53.0368 97.3514 53.4475C98.1238 53.8695 98.5144 54.7529 98.3048 55.6037Z" fill="#2AD1C9"/>
<path fill-rule="evenodd" clip-rule="evenodd" d="M91.8084 53.3303C92.0624 53.2217 92.3562 53.3394 92.4646 53.5932L94.123 57.4759L95.5583 55.191C95.7053 54.9571 96.014 54.8864 96.2478 55.0332C96.4816 55.1799 96.552 55.4885 96.405 55.7224L94.6007 58.5945L94.7114 58.8537C94.8199 59.1076 94.7019 59.4015 94.4479 59.5101C94.1939 59.6187 93.9001 59.501 93.7917 59.2472L93.1579 57.7633L90.3261 57.7475C90.0499 57.7459 89.8275 57.5208 89.8293 57.2447C89.8311 56.9686 90.0565 56.746 90.3326 56.7475L92.7298 56.761L91.5449 53.9867C91.4365 53.7328 91.5545 53.439 91.8084 53.3303Z" fill="black"/>
<path d="M71.9026 11.7378C71.9026 12.0383 71.6571 12.2819 71.3542 12.2819C71.0512 12.2819 70.8057 12.0383 70.8057 11.7378C70.8057 11.4373 71.0512 11.1937 71.3542 11.1937C71.6571 11.1937 71.9026 11.4373 71.9026 11.7378Z" fill="#F3F9FE"/>
<path d="M43.7923 15.4048C43.7923 15.7053 43.5467 15.9489 43.2438 15.9489C42.9409 15.9489 42.6953 15.7053 42.6953 15.4048C42.6953 15.1043 42.9409 14.8607 43.2438 14.8607C43.5467 14.8607 43.7923 15.1043 43.7923 15.4048Z" fill="#F3F9FE"/>
<path d="M101.541 38.9336C101.541 39.2341 101.296 39.4777 100.993 39.4777C100.69 39.4777 100.444 39.2341 100.444 38.9336C100.444 38.6331 100.69 38.3896 100.993 38.3896C101.296 38.3896 101.541 38.6331 101.541 38.9336Z" fill="#F3F9FE"/>
<mask id="mask0_18508_10514" style="mask-type:alpha" maskUnits="userSpaceOnUse" x="12" y="6" width="97" height="79">
<path fill-rule="evenodd" clip-rule="evenodd" d="M97.5764 84.1687C98.4743 84.1687 99.3247 83.7546 99.8469 83.029C105.605 75.0283 109 65.1855 109 54.5431C109 27.7335 87.4536 6 60.875 6C34.2963 6 12.75 27.7335 12.75 54.5431C12.75 65.1855 16.1453 75.0283 21.9029 83.029C22.4252 83.7546 23.2758 84.1687 24.1736 84.1687H97.5764Z" fill="#D1EBFF"/>
</mask>
<g mask="url(#mask0_18508_10514)">
<path d="M55.9007 77.3894H39.6175C38.7262 75.262 35.4764 70.8227 29.6076 70.0855C25.5446 61.5864 16.5198 61.6541 9.11523 62.5081V83.9755L116.27 83.9755V59.2316C82.3932 54.0591 70.0348 67.9558 64.3337 76.1949C63.2915 75.2392 62.094 75.6147 61.6255 75.9218C60.9948 75.7034 60.4486 76.0128 60.2543 76.1949C57.8135 75.2392 56.3349 76.5931 55.9007 77.3894Z" fill="#2AD1C9"/>
</g>
<path fill-rule="evenodd" clip-rule="evenodd" d="M96.4124 58.1628C96.4379 58.4377 96.2358 58.6813 95.9608 58.7069C77.5346 60.4205 67.1767 71.7344 64.7024 76.2114L64.3957 76.7664L63.9275 76.3387C63.1157 75.597 62.1881 75.8822 61.8301 76.1161L61.625 76.2501L61.3935 76.1702C60.9955 76.0328 60.6369 76.232 60.5266 76.335L60.2967 76.5497L60.0037 76.4354C58.9002 76.0049 58.0576 76.1065 57.4557 76.3685C56.8368 76.6379 56.4389 77.092 56.2704 77.3998L56.1281 77.6597H39.2165L39.0877 77.3535C38.2421 75.3426 35.1149 71.0845 29.4767 70.3789L29.199 70.3441L29.0834 70.0892C28.4598 68.7143 26.0739 64.6867 21.2388 63.2628C20.9739 63.1848 20.8224 62.9068 20.9004 62.6419C20.9784 62.377 21.2564 62.2255 21.5213 62.3035C26.4898 63.7667 29.0465 67.744 29.8744 69.4237C35.5373 70.2491 38.7889 74.3791 39.8722 76.6597H55.556C55.8591 76.2294 56.3616 75.7542 57.0566 75.4516C57.8566 75.1033 58.8845 74.996 60.1069 75.409C60.4269 75.2151 60.9216 75.0417 61.4895 75.1611C62.0682 74.8701 63.1084 74.6336 64.1139 75.235C67.1563 70.2419 77.6974 59.401 95.8682 57.7112C96.1432 57.6856 96.3868 57.8878 96.4124 58.1628Z" fill="black"/>
<path d="M37.7607 25.4166C37.8291 24.969 38.214 24.6383 38.6668 24.6383H57.9401C58.4463 24.6383 58.8567 25.0487 58.8567 25.555V36.2039C58.8567 36.7102 58.4463 37.1206 57.9401 37.1206H37.0399C36.4785 37.1206 36.049 36.6205 36.1338 36.0655L37.7607 25.4166Z" fill="#2AD1C9"/>
<path fill-rule="evenodd" clip-rule="evenodd" d="M58.6936 32.9805C58.9698 32.9805 59.1936 33.2043 59.1936 33.4805V36.2774C59.2136 36.4349 59.202 36.5949 59.1593 36.7481C59.1124 36.9165 59.0291 37.0725 58.9153 37.2052C58.8015 37.3378 58.6599 37.4438 58.5005 37.5157C58.3424 37.5871 58.1706 37.623 57.9972 37.6212H37.959C37.6828 37.6212 37.459 37.3974 37.459 37.1212C37.459 36.8451 37.6828 36.6212 37.959 36.6212L58.007 36.6212C58.0354 36.6216 58.0635 36.6158 58.0892 36.6042C58.115 36.5925 58.138 36.5754 58.1565 36.5538C58.1749 36.5323 58.1884 36.5071 58.196 36.4797C58.2036 36.4524 58.2052 36.4238 58.2005 36.3959L58.1936 36.3549V33.4805C58.1936 33.2043 58.4175 32.9805 58.6936 32.9805Z" fill="black"/>
<path fill-rule="evenodd" clip-rule="evenodd" d="M58.1619 25.1834C58.1264 25.1538 58.0815 25.1379 58.0353 25.1385L58.0284 25.1386L54.3496 25.1385C54.0735 25.1385 53.8496 24.9147 53.8496 24.6385C53.8496 24.3624 54.0735 24.1385 54.3496 24.1385H58.0254C58.3092 24.1356 58.5849 24.2339 58.8028 24.4158C59.0218 24.5987 59.168 24.8539 59.215 25.1351L59.2219 25.1761V28.2791C59.2219 28.5553 58.998 28.7791 58.7219 28.7791C58.4457 28.7791 58.2219 28.5553 58.2219 28.2791V25.2721C58.2107 25.2377 58.19 25.2069 58.1619 25.1834Z" fill="black"/>
<path fill-rule="evenodd" clip-rule="evenodd" d="M37.4832 27.8772C37.7556 27.9226 37.9396 28.1802 37.8942 28.4526L36.8194 34.8983C36.774 35.1707 36.5164 35.3547 36.244 35.3093C35.9716 35.2639 35.7876 35.0063 35.8331 34.7339L36.9078 28.2881C36.9532 28.0158 37.2109 27.8318 37.4832 27.8772Z" fill="black"/>
<path fill-rule="evenodd" clip-rule="evenodd" d="M44.654 26.2214C44.9291 26.2444 45.1336 26.486 45.1107 26.7612L44.4172 35.0827C44.3943 35.3579 44.1526 35.5624 43.8775 35.5395C43.6023 35.5166 43.3978 35.2749 43.4207 34.9997L44.1142 26.6782C44.1371 26.403 44.3788 26.1985 44.654 26.2214Z" fill="black"/>
<path fill-rule="evenodd" clip-rule="evenodd" d="M49.9573 26.2204C50.2331 26.2349 50.4449 26.4701 50.4304 26.7459L49.994 35.0673C49.9795 35.3431 49.7442 35.5549 49.4685 35.5405C49.1927 35.526 48.9809 35.2907 48.9954 35.015L49.4318 26.6935C49.4463 26.4178 49.6816 26.2059 49.9573 26.2204Z" fill="black"/>
<path fill-rule="evenodd" clip-rule="evenodd" d="M38.5928 30.8803C38.5928 30.6041 38.8166 30.3803 39.0928 30.3803H55.6769C55.953 30.3803 56.1769 30.6041 56.1769 30.8803C56.1769 31.1564 55.953 31.3803 55.6769 31.3803H39.0928C38.8166 31.3803 38.5928 31.1564 38.5928 30.8803Z" fill="black"/>
<path fill-rule="evenodd" clip-rule="evenodd" d="M39.0043 27.4319C39.1058 26.7359 39.7027 26.2197 40.4061 26.2197H54.8197C55.6021 26.2197 56.2364 26.854 56.2364 27.6364V34.1246C56.2364 34.907 55.6021 35.5412 54.8197 35.5412H39.4599C38.5961 35.5412 37.9334 34.7749 38.0581 33.9201L39.0043 27.4319ZM40.4061 27.2197C40.1992 27.2197 40.0237 27.3715 39.9938 27.5762L39.0476 34.0644C39.0109 34.3158 39.2059 34.5412 39.4599 34.5412H54.8197C55.0498 34.5412 55.2364 34.3547 55.2364 34.1246V27.6364C55.2364 27.4063 55.0498 27.2197 54.8197 27.2197H40.4061Z" fill="black"/>
<path d="M83.0733 25.4167C83.0049 24.9691 82.62 24.6385 82.1672 24.6385H62.8939C62.3877 24.6385 61.9773 25.0489 61.9773 25.5551V36.2041C61.9773 36.7103 62.3877 37.1208 62.8939 37.1208H83.7941C84.3555 37.1208 84.785 36.6206 84.7002 36.0656L83.0733 25.4167Z" fill="#2AD1C9"/>
<path fill-rule="evenodd" clip-rule="evenodd" d="M62.1412 32.9806C61.865 32.9806 61.6412 33.2045 61.6412 33.4806V36.2776C61.6212 36.4351 61.6328 36.5951 61.6755 36.7483C61.7224 36.9166 61.8057 37.0727 61.9195 37.2053C62.0333 37.3379 62.1749 37.4439 62.3343 37.5158C62.4924 37.5872 62.6642 37.6232 62.8376 37.6214H79.0537C79.3299 37.6214 79.5537 37.3975 79.5537 37.1214C79.5537 36.8452 79.3299 36.6214 79.0537 36.6214H62.8278C62.7994 36.6217 62.7713 36.616 62.7455 36.6043C62.7198 36.5927 62.6968 36.5755 62.6783 36.554C62.6599 36.5325 62.6464 36.5072 62.6388 36.4799C62.6312 36.4526 62.6296 36.424 62.6343 36.396L62.6412 36.3551V33.4806C62.6412 33.2045 62.4173 32.9806 62.1412 32.9806Z" fill="black"/>
<path fill-rule="evenodd" clip-rule="evenodd" d="M62.6731 25.1836C62.7085 25.154 62.7535 25.138 62.7997 25.1386L62.8065 25.1387L66.4854 25.1387C66.7615 25.1387 66.9854 24.9148 66.9854 24.6387C66.9854 24.3625 66.7615 24.1387 66.4854 24.1387H62.8095C62.5257 24.1357 62.2501 24.234 62.0321 24.416C61.8132 24.5988 61.667 24.854 61.6199 25.1353L61.6131 25.1762V31.972C61.6131 32.2481 61.8369 32.472 62.1131 32.472C62.3892 32.472 62.6131 32.2481 62.6131 31.972L62.6131 25.2722C62.6243 25.2378 62.645 25.207 62.6731 25.1836Z" fill="black"/>
<path fill-rule="evenodd" clip-rule="evenodd" d="M82.9409 25.675C82.669 25.7236 82.488 25.9833 82.5366 26.2551L84.0643 34.8107C84.1129 35.0825 84.3726 35.2635 84.6445 35.215C84.9163 35.1665 85.0973 34.9067 85.0488 34.6349L83.521 26.0793C83.4724 25.8075 83.2127 25.6265 82.9409 25.675Z" fill="black"/>
<path fill-rule="evenodd" clip-rule="evenodd" d="M76.18 26.2216C75.9048 26.2445 75.7003 26.4862 75.7233 26.7614L76.4167 35.0829C76.4397 35.3581 76.6813 35.5626 76.9565 35.5396C77.2317 35.5167 77.4362 35.275 77.4133 34.9998L76.7198 26.6783C76.6969 26.4031 76.4552 26.1987 76.18 26.2216Z" fill="black"/>
<path fill-rule="evenodd" clip-rule="evenodd" d="M70.8767 26.2205C70.6009 26.235 70.3891 26.4703 70.4035 26.746L70.84 35.0675C70.8545 35.3432 71.0897 35.5551 71.3655 35.5406C71.6413 35.5261 71.8531 35.2909 71.8386 35.0151L71.4022 26.6937C71.3877 26.4179 71.1524 26.2061 70.8767 26.2205Z" fill="black"/>
<path fill-rule="evenodd" clip-rule="evenodd" d="M82.2422 30.8804C82.2422 30.6043 82.0183 30.3804 81.7422 30.3804H65.1581C64.882 30.3804 64.6581 30.6043 64.6581 30.8804C64.6581 31.1565 64.882 31.3804 65.1581 31.3804H81.7422C82.0183 31.3804 82.2422 31.1565 82.2422 30.8804Z" fill="black"/>
<path fill-rule="evenodd" clip-rule="evenodd" d="M81.8307 27.4321C81.7292 26.736 81.1323 26.2199 80.4289 26.2199H66.0153C65.2329 26.2199 64.5986 26.8541 64.5986 27.6365V34.1247C64.5986 34.9071 65.2329 35.5414 66.0153 35.5414H81.375C82.2388 35.5414 82.9015 34.775 82.7769 33.9203L81.8307 27.4321ZM80.4289 27.2199C80.6357 27.2199 80.8113 27.3717 80.8412 27.5764L81.7874 34.0646C81.824 34.316 81.6291 34.5414 81.375 34.5414H66.0153C65.7852 34.5414 65.5986 34.3548 65.5986 34.1247V27.6365C65.5986 27.4064 65.7852 27.2199 66.0153 27.2199H80.4289Z" fill="black"/>
<path fill-rule="evenodd" clip-rule="evenodd" d="M58.8887 57.7499C58.8887 57.4738 59.1125 57.2499 59.3887 57.2499H76.1109C76.387 57.2499 76.6109 57.4738 76.6109 57.7499C76.6109 58.0261 76.387 58.2499 76.1109 58.2499H59.3887C59.1125 58.2499 58.8887 58.0261 58.8887 57.7499Z" fill="black"/>
<path fill-rule="evenodd" clip-rule="evenodd" d="M64.8887 57.9448C65.1648 57.9448 65.3887 58.1686 65.3887 58.4448L65.3887 67.5281C65.3887 67.8042 65.1648 68.0281 64.8887 68.0281C64.6125 68.0281 64.3887 67.8042 64.3887 67.5281L64.3887 58.4448C64.3887 58.1686 64.6125 57.9448 64.8887 57.9448Z" fill="black"/>
<path fill-rule="evenodd" clip-rule="evenodd" d="M71.917 57.9448C72.1931 57.9448 72.417 58.1686 72.417 58.4448L72.417 64.167C72.417 64.4431 72.1931 64.667 71.917 64.667C71.6408 64.667 71.417 64.4431 71.417 64.167L71.417 58.4448C71.417 58.1686 71.6408 57.9448 71.917 57.9448Z" fill="black"/>
</svg>
